<svg width="24" height="24" viewBox="0 0 24 24" fill="none" xmlns="http://www.w3.org/2000/svg">
<mask id="mask0" mask-type="alpha" maskUnits="userSpaceOnUse" x="0" y="0" width="24" height="24">
<rect width="24" height="24" fill="white"/>
</mask>
<g mask="url(#mask0)">
<path d="M18.213 12.1417L17 13.6789C19.984 15.344 22 18.4425 22 21.9918C22 27.2927 17.514 31.6053 12 31.6053C6.486 31.6053 2 27.2927 2 21.9918C2 18.4425 4.016 15.344 7 13.6789L5.787 12.1417C2.322 14.1635 0 17.8108 0 21.9918C0 28.3627 5.373 33.528 12 33.528C18.627 33.528 24 28.3627 24 21.9918C24 17.8108 21.678 14.1635 18.213 12.1417Z" fill="#3C3C3C"/>
<path d="M10 8.29622L5 8.29622L12 0.605378L19 8.29622L14 8.29622L14 15.9871L10 15.9871L10 8.29622Z" fill="#3C3C3C"/>
</g>
</svg>
