<svg width="24" height="24" viewBox="0 0 24 24" fill="none" xmlns="http://www.w3.org/2000/svg">
  <mask id="mask0" mask-type="alpha" maskUnits="userSpaceOnUse" x="0" y="0" width="24" height="24">
    <rect width="24" height="24" transform="translate(24 24) rotate(-180)" fill="white" />
  </mask>
  <g mask="url(#mask0)">
    <path d="M14 6.37351L19 6.37351L12 14.0644L5 6.37351L10 6.37351L10 -3.24005L14 -3.24005L14 6.37351Z"
      fill="#3C3C3C" />
    <path
      d="M18.213 12.1417L17 13.6789C19.984 15.3439 22 18.4424 22 21.9917C22 27.2926 17.514 31.6053 12 31.6053C6.486 31.6053 2 27.2926 2 21.9917C2 18.4424 4.016 15.3439 7 13.6789L5.787 12.1417C2.322 14.1634 0 17.8108 0 21.9917C0 28.3626 5.373 33.528 12 33.528C18.627 33.528 24 28.3626 24 21.9917C24 17.8108 21.678 14.1634 18.213 12.1417Z"
      fill="#3C3C3C" />
  </g>
</svg>