<?xml version="1.0" encoding="utf-8"?>
<!-- Generator: Adobe Illustrator 24.3.0, SVG Export Plug-In . SVG Version: 6.00 Build 0)  -->
<svg version="1.1" id="Ebene_1" xmlns="http://www.w3.org/2000/svg" xmlns:xlink="http://www.w3.org/1999/xlink" x="0px" y="0px"
	 viewBox="0 0 100 23" style="enable-background:new 0 0 100 23;" xml:space="preserve">
<style type="text/css">
	.st0{fill:#121212;}
</style>
<path class="st0" d="M93.6,22.4c2.1,0,3.3-0.8,3.8-1.8l0.1,1.6h2.4v-6h-5.9v2.2h2.8v0.1c0,0.8-1,1.6-2.4,1.6c-1.7,0-2.6-1.1-2.6-3.1
	c0-2,0.9-3.1,2.5-3.1c1.1,0,1.8,0.6,2.1,1.5l3.5-0.6c-0.5-2.1-2.6-3.3-5.5-3.3c-3.7,0-6,2.3-6,5.6C88.4,20.3,90.4,22.4,93.6,22.4
	 M82.5,18.5h-1.6v3.6h-3.3V11.7h5.9c3,0,4.3,1.4,4.3,3.3c0,1.2-0.6,2.4-2,3l2.3,4.1h-3.6C84.4,22.1,82.5,18.5,82.5,18.5z M80.9,16.4
	h1.8c1.1,0,1.5-0.5,1.5-1.3c0-0.7-0.5-1.2-1.5-1.2h-1.8C80.9,13.9,80.9,16.4,80.9,16.4z M70.6,19.8V18h5.3v-2.2h-5.3v-1.7h5.5v-2.3
	h-8.9v10.4h9v-2.3C76.2,19.8,70.6,19.8,70.6,19.8z M66.1,19.1c0,1.7-1.2,3-3.8,3h-6.7V11.7h6.6c2.4,0,3.6,1,3.6,2.6
	c0,1.1-0.7,2-2,2.3C65.3,16.9,66.1,17.8,66.1,19.1 M59,13.9v1.9h2.2c0.8,0,1.2-0.4,1.2-1c0-0.6-0.4-0.9-1.2-0.9H59L59,13.9z
	 M62.6,18.9c0-0.6-0.5-1-1.3-1H59V20h2.3C62.2,20,62.6,19.5,62.6,18.9 M44.9,19.9v2.2h9.8v-2.4h-5.6l5.4-5.8v-2.2h-9.3v2.4h5.2
	L44.9,19.9L44.9,19.9z M33.5,11.7v6.4c0,2.7,1.9,4.3,5.3,4.3c3.4,0,5.3-1.7,5.3-4.3v-6.4h-3.3v6.1c0,1.2-0.7,2-2,2c-1.3,0-2-0.7-2-2
	v-6.1C36.9,11.7,33.5,11.7,33.5,11.7z M26.8,19.8V18h5.3v-2.2h-5.3v-1.7h5.5v-2.3h-8.9v10.4h9v-2.3H26.8z M16.9,18.5h-1.6v3.6h-3.3
	V11.7h5.9c3,0,4.3,1.4,4.3,3.3c0,1.2-0.6,2.4-2,3l2.3,4.1h-3.6C18.8,22.1,16.9,18.5,16.9,18.5z M15.3,16.4h1.8
	c1.1,0,1.5-0.5,1.5-1.3c0-0.7-0.5-1.2-1.5-1.2h-1.8C15.3,13.9,15.3,16.4,15.3,16.4z M7.3,11.7l-3.7,4.1v-4.1H0.2v10.4h3.3v-2.7
	l1.3-1.4l2.6,4.1h3.8l-4.1-6.2l3.9-4.2H7.3L7.3,11.7z M64.5,0.1l-1.8,10.4h9l0.4-2.3h-5.7l0.3-1.8h5.3l0.4-2.2h-5.3l0.3-1.7H73
	l0.4-2.3H64.5z M51,10.5H54V4.2h0c0.1,0.4,0.5,0.9,0.7,1.3l3.6,5h3.4V0.1h-3.1v6.3h0C58.5,6,58.2,5.5,57.9,5l-3.4-4.9H51V10.5z
	 M46,10.5h3.3V0.1H46V10.5z M44.9,7.5c0,1.7-1.2,3-3.8,3h-6.7V0.1H41c2.4,0,3.6,1,3.6,2.6c0,1.1-0.7,2-2,2.3
	C44.1,5.2,44.9,6.1,44.9,7.5 M37.8,2.2v1.9h2.2c0.8,0,1.2-0.4,1.2-1c0-0.6-0.4-0.9-1.2-0.9C39.9,2.2,37.8,2.2,37.8,2.2z M41.3,7.2
	c0-0.6-0.5-1-1.3-1h-2.3v2.1h2.3C40.9,8.3,41.3,7.8,41.3,7.2 M27.9,6.8h-1.6v3.6H23V0.1h5.9c3,0,4.3,1.4,4.3,3.3c0,1.2-0.6,2.4-2,3
	l2.3,4.1h-3.6L27.9,6.8z M26.3,4.8h1.8c1.1,0,1.5-0.5,1.5-1.3c0-0.7-0.5-1.2-1.5-1.2h-1.8V4.8z M11,0.1v6.4c0,2.7,1.9,4.3,5.3,4.3
	c3.4,0,5.3-1.7,5.3-4.3V0.1h-3.3v6.1c0,1.2-0.7,2-2,2c-1.3,0-2-0.7-2-2V0.1C14.4,0.1,11,0.1,11,0.1z M9.9,0.1v2.6H6.6v7.8H3.3V2.7H0
	V0.1H9.9z"/>
</svg>
